<?xml version="1.0" encoding="UTF-8"?>
<svg width="387px" height="376px" viewBox="0 0 387 376" version="1.1" xmlns="http://www.w3.org/2000/svg" xmlns:xlink="http://www.w3.org/1999/xlink">
    <!-- Generator: Sketch 52.5 (67469) - http://www.bohemiancoding.com/sketch -->
    <title>left paw</title>
    <desc>Created with Sketch.</desc>
    <defs>
        <path d="M38.855713,219.845985 C12.4005768,207.17781 -0.338163917,193.853164 0.639490921,179.872049 C1.61714576,165.890933 3.84439877,156.592652 7.32124996,151.977206 C37.3590025,85.3325983 59.2875587,47.4337164 73.1069186,38.2805599 C76.2339647,36.2093828 77.8663358,5.07742101 86.0509917,1.03955271 C92.4852067,-2.13474237 105.688766,21.5673701 108.411391,20.6066213 C140.833924,9.16549002 176.95278,8.50029415 216.767958,18.6110337 C245.221384,29.3819439 269.344695,42.6682131 289.137892,58.4698412 C298.115121,65.6366891 321.033235,37.2633065 330.961049,48.0701578 C343.593889,61.8215473 342.734052,115.888157 347.437482,135.629392 C354.195903,163.995835 379.285524,255.95593 335.09093,329.715955 C331.714504,335.351152 310.495378,328.899869 271.433551,310.362105 C246.65306,347.592118 226.676779,361.190215 211.504709,351.156397 C196.332638,341.122579 194.213229,319.685775 205.146483,286.845985 L38.855713,219.845985 Z" id="path-1"></path>
        <filter x="-1.0%" y="-1.0%" width="101.9%" height="102.0%" filterUnits="objectBoundingBox" id="filter-2">
            <feMorphology radius="3" operator="erode" in="SourceAlpha" result="shadowSpreadInner1"></feMorphology>
            <feGaussianBlur stdDeviation="1.5" in="shadowSpreadInner1" result="shadowBlurInner1"></feGaussianBlur>
            <feOffset dx="0" dy="1" in="shadowBlurInner1" result="shadowOffsetInner1"></feOffset>
            <feComposite in="shadowOffsetInner1" in2="SourceAlpha" operator="arithmetic" k2="-1" k3="1" result="shadowInnerInner1"></feComposite>
            <feColorMatrix values="0 0 0 0 0.999901831   0 0 0 0 1   0 0 0 0 0.999879897  0 0 0 0.35 0" type="matrix" in="shadowInnerInner1"></feColorMatrix>
        </filter>
        <path d="M32.8766898,0.856874075 C27.3505298,0.856874075 16.8426723,30.6382947 1.35311739,90.201136 L1.35311345,90.201135 C1.08600497,91.228262 1.66767988,92.2851746 2.67833369,92.6090814 C20.1325589,98.2030271 33.3726211,101 42.3985205,101 C51.3493868,101 63.7405909,98.2493368 79.5721329,92.7480105 L79.5721254,92.747989 C80.6154842,92.3854307 81.167382,91.2457097 80.8048237,90.2023509 C80.7866003,90.1499081 80.766201,90.0982468 80.743679,90.0475014 C54.3537595,30.5870832 38.3980965,0.856874075 32.8766898,0.856874075 Z" id="path-3"></path>
        <path d="M56.2384704,14.1940203 C49.5080925,5.13050834 40.9560975,0.59875236 30.5824857,0.59875236 C-4.85983994,11.9896811 -9.19817045,42.8585066 17.5674941,93.2052289" id="path-5"></path>
        <filter x="-8.9%" y="-5.4%" width="117.9%" height="110.8%" filterUnits="objectBoundingBox" id="filter-6">
            <feMorphology radius="3" operator="erode" in="SourceAlpha" result="shadowSpreadInner1"></feMorphology>
            <feGaussianBlur stdDeviation="3" in="shadowSpreadInner1" result="shadowBlurInner1"></feGaussianBlur>
            <feOffset dx="0" dy="1" in="shadowBlurInner1" result="shadowOffsetInner1"></feOffset>
            <feComposite in="shadowOffsetInner1" in2="SourceAlpha" operator="arithmetic" k2="-1" k3="1" result="shadowInnerInner1"></feComposite>
            <feColorMatrix values="0 0 0 0 0.999901831   0 0 0 0 1   0 0 0 0 0.999879897  0 0 0 0.5 0" type="matrix" in="shadowInnerInner1"></feColorMatrix>
        </filter>
    </defs>
    <g id="Page-1" stroke="none" stroke-width="1" fill="none" fill-rule="evenodd">
        <g id="Desktop-Copy-2" transform="translate(-586.000000, -629.000000)">
            <g id="left-paw" transform="translate(581.000000, 629.000000)">
                <g id="bow" transform="translate(207.863344, 202.087295) rotate(-4.000000) translate(-207.863344, -202.087295) translate(27.363344, 24.587295)" fill-rule="nonzero">
                    <g id="Path-3">
                        <use fill="#091145" xlink:href="#path-1"></use>
                        <use fill="black" fill-opacity="1" filter="url(#filter-2)" xlink:href="#path-1"></use>
                    </g>
                    <g id="Group-5" transform="translate(131.425248, 226.296995) rotate(-3.000000) translate(-131.425248, -226.296995) translate(86.925248, 192.296995)">
                        <path d="M58.5680944,28.5929905 C86.2929792,17.4271349 95.0572567,24.4032003 84.8609271,49.5211869 C74.6645974,74.6391734 62.3583628,73.4509853 47.9422233,45.9566224 L32.6888669,39.605065 C2.8685312,44.6666468 -6.40793475,36.5960271 4.85946908,15.3932058 C16.1268729,-5.80961551 28.4964825,-4.91310049 41.9682978,18.0827509 L58.5680944,28.5929905 Z" id="Path-6" fill="#6100AD"></path>
                        <ellipse id="Oval" fill="#4B0080" transform="translate(45.684082, 32.287638) rotate(19.000000) translate(-45.684082, -32.287638) " cx="45.6840816" cy="32.2876382" rx="12" ry="14.5"></ellipse>
                    </g>
                </g>
                <g id="horn" transform="translate(187.000000, 0.000000)">
                    <mask id="mask-4" fill="white">
                        <use xlink:href="#path-3"></use>
                    </mask>
                    <use id="Mask" fill="#F78AFF" fill-rule="nonzero" xlink:href="#path-3"></use>
                    <g id="Group-4" mask="url(#mask-4)" fill-rule="nonzero" stroke="#091145" stroke-linecap="square" stroke-width="6">
                        <g transform="translate(-8.000000, 26.000000)">
                            <path d="M0.5,54.5 C20.909938,60.4945466 36.4825285,63.4918199 47.2177717,63.4918199 C57.9530148,63.4918199 73.5256054,60.4945466 93.9355433,54.5" id="Line-2"></path>
                            <path d="M1,25 C21.409938,30.9945466 36.9825285,33.9918199 47.7177717,33.9918199 C58.4530148,33.9918199 74.0256054,30.9945466 94.4355433,25" id="Line-2-Copy"></path>
                            <path d="M1,1.33226763e-14 C21.409938,5.99454661 36.9825285,8.99181991 47.7177717,8.99181991 C58.4530148,8.99181991 74.0256054,5.99454661 94.4355433,1.33226763e-14" id="Line-2-Copy-2"></path>
                        </g>
                    </g>
                </g>
                <g id="eye" transform="translate(111.000000, 152.000000)" fill-rule="nonzero">
                    <circle id="Oval" fill="#FFFFFF" cx="9.5" cy="9.5" r="9.5"></circle>
                    <ellipse id="Oval-Copy" fill="#091145" transform="translate(8.000000, 14.000000) rotate(10.000000) translate(-8.000000, -14.000000) " cx="8" cy="14" rx="7" ry="6"></ellipse>
                </g>
                <g id="eye-copy" transform="translate(231.000000, 182.000000)" fill-rule="nonzero">
                    <circle id="Oval" fill="#FFFFFF" cx="9.5" cy="9.5" r="9.5"></circle>
                    <ellipse id="Oval-Copy" fill="#091145" transform="translate(8.000000, 14.000000) rotate(10.000000) translate(-8.000000, -14.000000) " cx="8" cy="14" rx="7" ry="6"></ellipse>
                </g>
                <path d="M173.396657,188.024666 C175.758671,188.984036 178.162513,190.618783 180.608183,192.928907 C181.895316,194.144703 183.037188,195.399412 184.033797,196.693034 L184.033788,196.693041 C185.044951,198.005555 184.800659,199.889267 183.488146,200.900431 C182.935391,201.326275 182.251483,201.54612 181.554127,201.52213 L162.041113,200.850845 C160.385238,200.79388 159.089066,199.405349 159.146031,197.749475 C159.171496,197.009267 159.469875,196.304641 159.983729,195.771246 C160.926932,194.792173 161.899934,193.89554 162.902736,193.081345 C165.122239,191.279288 167.810451,189.619047 170.96737,188.100623 L170.967367,188.100615 C171.730156,187.733727 172.612439,187.706143 173.396657,188.024666 Z" id="Triangle" fill="#FFC0C2" fill-rule="nonzero" transform="translate(171.745939, 194.747004) rotate(-171.000000) translate(-171.745939, -194.747004) "></path>
                <path d="M102.991694,52.0525483 C100.383599,54.0175161 97.9493181,61.035775 95.6888528,73.1073249 C100.273757,70.0201198 103.904065,67.8964508 106.579778,66.736318 C109.255491,65.5761851 112.885799,64.5518033 117.470703,63.6631726 C110.210086,54.9087862 105.38375,51.0385781 102.991694,52.0525483 Z" id="Path-5" fill="#CB71FF" fill-rule="nonzero"></path>
                <path d="M328.600949,84.93322 C324.675745,87.9171384 321.012134,98.5747743 317.610117,116.906128 C324.510432,112.218027 329.974074,108.993111 334.001042,107.231382 C338.028011,105.469652 343.491652,103.914069 350.391967,102.564631 C339.464684,89.270584 332.201011,83.393447 328.600949,84.93322 Z" id="Path-5-Copy" fill="#CB71FF" fill-rule="nonzero" transform="translate(334.001042, 100.799801) scale(-1, 1) rotate(-15.000000) translate(-334.001042, -100.799801) "></path>
                <g id="whiskers" transform="translate(116.000000, 177.000000)" fill-rule="nonzero" stroke="#FFFFFF" stroke-linecap="round" stroke-width="3">
                    <g id="Group-3">
                        <path d="M27.2937187,14.8300104 C24.7055232,12.7072362 21.8353631,10.7028434 18.6832382,8.81683192 C15.5311133,6.93082043 10.6367006,4.28943484 4,0.892675129" id="Path-7"></path>
                        <path d="M25.1123086,33.1217517 C21.1706092,30.8236891 18.3765917,29.1608114 16.7302559,28.1331187 C12.6475023,25.5845401 10.0362183,23.9080092 7.48428242,22.3811089 C3.38877674,19.9306442 1.50021256,18.86508 1.81858988,19.1844165" id="Path-7-Copy" transform="translate(13.448226, 26.125471) rotate(-43.000000) translate(-13.448226, -26.125471) "></path>
                    </g>
                    <g id="Group-3-Copy" transform="translate(93.472021, 38.577111) scale(-1, 1) rotate(-27.000000) translate(-93.472021, -38.577111) translate(78.472021, 19.077111)">
                        <path d="M29.2937187,14.8300104 C26.9316682,12.957446 24.1275331,11.0500082 20.8813136,9.10769703 C17.6350941,7.16538587 12.6746562,4.42704524 6,0.892675129" id="Path-7"></path>
                        <path d="M25.4057841,32.5600433 C22.0319617,30.0885721 18.9089722,27.9935875 16.0368157,26.2750895 C14.4492629,25.3252087 12.1246095,24.3071069 9.45586481,22.8486595 C8.01621533,22.0619026 5.56828218,20.6532522 2.11206536,18.6227081" id="Path-7-Copy" transform="translate(13.758925, 25.591376) rotate(-43.000000) translate(-13.758925, -25.591376) "></path>
                    </g>
                </g>
                <g id="left-paw-copy-2" transform="translate(34.812435, 165.509033) rotate(-8.000000) translate(-34.812435, -165.509033) translate(6.312435, 118.509033)" fill-rule="nonzero">
                    <g id="Path-8">
                        <use fill="#091145" xlink:href="#path-5"></use>
                        <use fill="black" fill-opacity="1" filter="url(#filter-6)" xlink:href="#path-5"></use>
                    </g>
                    <circle id="Oval" fill="#FFC3C5" cx="13.9689154" cy="23.6162555" r="3"></circle>
                    <ellipse id="Oval-Copy-2" fill="#FFC3C5" cx="25.6273162" cy="19.7006852" rx="3" ry="3.5"></ellipse>
                    <ellipse id="Oval-Copy-3" fill="#FFC3C5" cx="35.6852263" cy="27.1731978" rx="3" ry="3.5"></ellipse>
                    <path d="M14.8492649,36.5976684 C14.3887285,33.6934854 18.3357036,24.9612837 26.8712702,26.2780081 C35.4068369,27.5947325 35.9495119,40.8651441 29.1695186,38.9563453 C22.3895253,37.0475465 15.3098012,39.5018514 14.8492649,36.5976684 Z" id="Path-11" fill="#FFC3C5"></path>
                </g>
                <path d="M29.2391601,196.330588 L36.2799113,212.786106 L61.9184666,135 C59.9278164,135.842221 58.4173282,136.263331 57.3870021,136.263331 C56.3566759,136.263331 54.102521,135.842221 50.6245374,135 L29.2391601,196.330588 Z" id="Path-14" fill="#091145" fill-rule="nonzero"></path>
            </g>
        </g>
    </g>
</svg>