<?xml version="1.0" encoding="UTF-8"?>
<svg width="398px" height="376px" viewBox="0 0 398 376" version="1.1" xmlns="http://www.w3.org/2000/svg" xmlns:xlink="http://www.w3.org/1999/xlink">
    <!-- Generator: Sketch 52.5 (67469) - http://www.bohemiancoding.com/sketch -->
    <title>playing</title>
    <desc>Created with Sketch.</desc>
    <defs>
        <path d="M76.855713,219.845985 C39.518831,240.694981 16.0217718,247.575424 6.36453541,240.487314 C-8.12131915,229.855148 9.41876924,197.015067 18.3142178,182.224536 C24.2445168,172.364182 33.2468609,162.281739 45.32125,151.977206 C75.3590025,85.3325983 97.2875587,47.4337164 111.106919,38.2805599 C114.233965,36.2093828 115.866336,5.07742101 124.050992,1.03955271 C130.485207,-2.13474237 143.688766,21.5673701 146.411391,20.6066213 C178.833924,9.16549002 214.95278,8.50029415 254.767958,18.6110337 C283.221384,29.3819439 307.344695,42.6682131 327.137892,58.4698412 C336.115121,65.6366891 359.033235,37.2633065 368.961049,48.0701578 C381.593889,61.8215473 380.734052,115.888157 385.437482,135.629392 C392.195903,163.995835 417.285524,255.95593 373.09093,329.715955 C369.714504,335.351152 348.495378,328.899869 309.433551,310.362105 C284.65306,347.592118 264.676779,361.190215 249.504709,351.156397 C234.332638,341.122579 232.213229,319.685775 243.146483,286.845985 L76.855713,219.845985 Z" id="path-1"></path>
        <filter x="-0.9%" y="-1.0%" width="101.8%" height="102.0%" filterUnits="objectBoundingBox" id="filter-2">
            <feMorphology radius="3" operator="erode" in="SourceAlpha" result="shadowSpreadInner1"></feMorphology>
            <feGaussianBlur stdDeviation="1.5" in="shadowSpreadInner1" result="shadowBlurInner1"></feGaussianBlur>
            <feOffset dx="0" dy="1" in="shadowBlurInner1" result="shadowOffsetInner1"></feOffset>
            <feComposite in="shadowOffsetInner1" in2="SourceAlpha" operator="arithmetic" k2="-1" k3="1" result="shadowInnerInner1"></feComposite>
            <feColorMatrix values="0 0 0 0 1   0 0 0 0 1   0 0 0 0 1  0 0 0 0.35 0" type="matrix" in="shadowInnerInner1"></feColorMatrix>
        </filter>
        <path d="M32.8766898,0.856874075 C27.3505298,0.856874075 16.8426723,30.6382947 1.35311739,90.201136 L1.35311345,90.201135 C1.08600497,91.228262 1.66767988,92.2851746 2.67833369,92.6090814 C20.1325589,98.2030271 33.3726211,101 42.3985205,101 C51.3493868,101 63.7405909,98.2493368 79.5721329,92.7480105 L79.5721254,92.747989 C80.6154842,92.3854307 81.167382,91.2457097 80.8048237,90.2023509 C80.7866003,90.1499081 80.766201,90.0982468 80.743679,90.0475014 C54.3537595,30.5870832 38.3980965,0.856874075 32.8766898,0.856874075 Z" id="path-3"></path>
    </defs>
    <g id="Page-1" stroke="none" stroke-width="1" fill="none" fill-rule="evenodd">
        <g id="Desktop-Copy-2" transform="translate(-503.000000, -416.000000)">
            <g id="playing" transform="translate(486.000000, 416.000000)">
                <g id="bow" transform="translate(211.909627, 203.412668) rotate(-4.000000) translate(-211.909627, -203.412668) translate(12.409627, 25.912668)" fill-rule="nonzero">
                    <g id="Path-3">
                        <use fill="#0B1142" xlink:href="#path-1"></use>
                        <use fill="black" fill-opacity="1" filter="url(#filter-2)" xlink:href="#path-1"></use>
                    </g>
                    <g id="Group-5" transform="translate(169.425248, 226.296995) rotate(-3.000000) translate(-169.425248, -226.296995) translate(124.925248, 192.296995)">
                        <path d="M58.5680944,28.5929905 C86.2929792,17.4271349 95.0572567,24.4032003 84.8609271,49.5211869 C74.6645974,74.6391734 62.3583628,73.4509853 47.9422233,45.9566224 L32.6888669,39.605065 C2.8685312,44.6666468 -6.40793475,36.5960271 4.85946908,15.3932058 C16.1268729,-5.80961551 28.4964825,-4.91310049 41.9682978,18.0827509 L58.5680944,28.5929905 Z" id="Path-6" fill="#5800A6"></path>
                        <ellipse id="Oval" fill="#44067B" transform="translate(45.684082, 32.287638) rotate(19.000000) translate(-45.684082, -32.287638) " cx="45.6840816" cy="32.2876382" rx="12" ry="14.5"></ellipse>
                    </g>
                </g>
                <g id="horn" transform="translate(210.000000, 0.000000)">
                    <mask id="mask-4" fill="white">
                        <use xlink:href="#path-3"></use>
                    </mask>
                    <use id="Mask" fill="#E990FF" fill-rule="nonzero" xlink:href="#path-3"></use>
                    <g id="Group-4" mask="url(#mask-4)" fill-rule="nonzero" stroke="#0B1142" stroke-linecap="square" stroke-width="6">
                        <g transform="translate(-8.000000, 26.000000)">
                            <path d="M0.5,54.5 C20.909938,60.4945466 36.4825285,63.4918199 47.2177717,63.4918199 C57.9530148,63.4918199 73.5256054,60.4945466 93.9355433,54.5" id="Line-2"></path>
                            <path d="M1,25 C21.409938,30.9945466 36.9825285,33.9918199 47.7177717,33.9918199 C58.4530148,33.9918199 74.0256054,30.9945466 94.4355433,25" id="Line-2-Copy"></path>
                            <path d="M1,1.33226763e-14 C21.409938,5.99454661 36.9825285,8.99181991 47.7177717,8.99181991 C58.4530148,8.99181991 74.0256054,5.99454661 94.4355433,1.33226763e-14" id="Line-2-Copy-2"></path>
                        </g>
                    </g>
                </g>
                <g id="eye" transform="translate(134.000000, 152.000000)" fill-rule="nonzero">
                    <circle id="Oval" fill="#FFFFFF" cx="9.5" cy="9.5" r="9.5"></circle>
                    <ellipse id="Oval-Copy" fill="#0B1142" transform="translate(8.000000, 14.000000) rotate(10.000000) translate(-8.000000, -14.000000) " cx="8" cy="14" rx="7" ry="6"></ellipse>
                </g>
                <g id="eye-copy" transform="translate(254.000000, 182.000000)" fill-rule="nonzero">
                    <circle id="Oval" fill="#FFFFFF" cx="9.5" cy="9.5" r="9.5"></circle>
                    <ellipse id="Oval-Copy" fill="#0B1142" transform="translate(8.000000, 14.000000) rotate(10.000000) translate(-8.000000, -14.000000) " cx="8" cy="14" rx="7" ry="6"></ellipse>
                </g>
                <path d="M196.396657,188.024666 C198.758671,188.984036 201.162513,190.618783 203.608183,192.928907 C204.895316,194.144703 206.037188,195.399412 207.033797,196.693034 L207.033788,196.693041 C208.044951,198.005555 207.800659,199.889267 206.488146,200.900431 C205.935391,201.326275 205.251483,201.54612 204.554127,201.52213 L185.041113,200.850845 C183.385238,200.79388 182.089066,199.405349 182.146031,197.749475 C182.171496,197.009267 182.469875,196.304641 182.983729,195.771246 C183.926932,194.792173 184.899934,193.89554 185.902736,193.081345 C188.122239,191.279288 190.810451,189.619047 193.96737,188.100623 L193.967367,188.100615 C194.730156,187.733727 195.612439,187.706143 196.396657,188.024666 Z" id="Triangle" fill="#FFC3C3" fill-rule="nonzero" transform="translate(194.745939, 194.747004) rotate(-171.000000) translate(-194.745939, -194.747004) "></path>
                <path d="M125.991694,52.0525483 C123.383599,54.0175161 120.949318,61.035775 118.688853,73.1073249 C123.273757,70.0201198 126.904065,67.8964508 129.579778,66.736318 C132.255491,65.5761851 135.885799,64.5518033 140.470703,63.6631726 C133.210086,54.9087862 128.38375,51.0385781 125.991694,52.0525483 Z" id="Path-5" fill="#BF75FF" fill-rule="nonzero"></path>
                <path d="M351.600949,84.93322 C347.675745,87.9171384 344.012134,98.5747743 340.610117,116.906128 C347.510432,112.218027 352.974074,108.993111 357.001042,107.231382 C361.028011,105.469652 366.491652,103.914069 373.391967,102.564631 C362.464684,89.270584 355.201011,83.393447 351.600949,84.93322 Z" id="Path-5-Copy" fill="#BF75FF" fill-rule="nonzero" transform="translate(357.001042, 100.799801) scale(-1, 1) rotate(-15.000000) translate(-357.001042, -100.799801) "></path>
                <g id="whiskers" transform="translate(139.000000, 177.000000)" fill-rule="nonzero" stroke="#FFFFFF" stroke-linecap="round" stroke-width="3">
                    <g id="Group-3">
                        <path d="M27.2937187,14.8300104 C24.7055232,12.7072362 21.8353631,10.7028434 18.6832382,8.81683192 C15.5311133,6.93082043 10.6367006,4.28943484 4,0.892675129" id="Path-7"></path>
                        <path d="M25.1123086,33.1217517 C21.1706092,30.8236891 18.3765917,29.1608114 16.7302559,28.1331187 C12.6475023,25.5845401 10.0362183,23.9080092 7.48428242,22.3811089 C3.38877674,19.9306442 1.50021256,18.86508 1.81858988,19.1844165" id="Path-7-Copy" transform="translate(13.448226, 26.125471) rotate(-43.000000) translate(-13.448226, -26.125471) "></path>
                    </g>
                    <g id="Group-3-Copy" transform="translate(93.472021, 38.577111) scale(-1, 1) rotate(-27.000000) translate(-93.472021, -38.577111) translate(78.472021, 19.077111)">
                        <path d="M29.2937187,14.8300104 C26.9316682,12.957446 24.1275331,11.0500082 20.8813136,9.10769703 C17.6350941,7.16538587 12.6746562,4.42704524 6,0.892675129" id="Path-7"></path>
                        <path d="M25.4057841,32.5600433 C22.0319617,30.0885721 18.9089722,27.9935875 16.0368157,26.2750895 C14.4492629,25.3252087 12.1246095,24.3071069 9.45586481,22.8486595 C8.01621533,22.0619026 5.56828218,20.6532522 2.11206536,18.6227081" id="Path-7-Copy" transform="translate(13.758925, 25.591376) rotate(-43.000000) translate(-13.758925, -25.591376) "></path>
                    </g>
                </g>
            </g>
        </g>
    </g>
</svg>