<?xml version="1.0" encoding="UTF-8"?>
<svg width="1024px" height="853px" viewBox="0 0 1024 853" version="1.1" xmlns="http://www.w3.org/2000/svg" xmlns:xlink="http://www.w3.org/1999/xlink">
    <!-- Generator: Sketch 52.5 (67469) - http://www.bohemiancoding.com/sketch -->
    <title>rainbow</title>
    <desc>Created with Sketch.</desc>
    <g id="Page-1" stroke="none" stroke-width="1" fill="none" fill-rule="evenodd" opacity="0.281459263">
        <g id="Desktop" transform="translate(0.000000, -171.000000)" fill-rule="nonzero">
            <g id="rainbow" transform="translate(600.435105, 598.949604) rotate(-18.000000) translate(-600.435105, -598.949604) translate(-56.564895, 189.949604)">
                <path d="M923.587288,748.313574 C964.920274,730.778652 990.791356,707.341349 990.791356,678.001666 C990.791356,532.159323 847.690283,413.930745 671.166163,413.930745 C494.642043,413.930745 351.54097,532.159323 351.54097,678.001666 C351.54097,710.31936 382.930475,735.475668 431.798073,753.470589 C193.637865,726.781545 0.460598836,656.129551 0.460598836,541.514596 C0.460598836,242.704242 294.385661,0.470589081 656.960599,0.470589081 C1019.53554,0.470589081 1313.4606,242.704242 1313.4606,541.514596 C1313.4606,649.398514 1142.30667,718.331507 923.587288,748.313574 Z" id="Combined-Shape" fill="#000B4E"></path>
                <path d="M1261.28913,598.815319 C1261.28913,876.087566 50.2891271,876.087566 50.2891271,598.815319 C50.2891271,321.543071 321.380711,96.7695039 655.789127,96.7695039 C990.197543,96.7695039 1261.28913,321.543071 1261.28913,598.815319 Z M987.902839,678.656647 C987.902839,532.451516 845.103761,413.928839 668.952171,413.928839 C492.80058,413.928839 350.001502,532.451516 350.001502,678.656647 C350.001502,824.861778 987.902839,824.861778 987.902839,678.656647 Z" id="Combined-Shape" fill="#172265"></path>
                <path d="M1181.88714,609.294859 C1181.88714,849.076775 128.887143,849.076775 128.887143,609.294859 C128.887143,369.512944 364.609222,175.131296 655.387143,175.131296 C946.165064,175.131296 1181.88714,369.512944 1181.88714,609.294859 Z M989.141478,678.165662 C989.141478,532.441578 846.073164,414.308867 669.589455,414.308867 C493.105746,414.308867 350.037432,532.441578 350.037432,678.165662 C350.037432,823.889746 989.141478,823.889746 989.141478,678.165662 Z" id="Combined-Shape" fill="#29347E"></path>
                <path d="M1127.13251,633.356385 C1127.13251,842.677406 211.132506,842.677406 211.132506,633.356385 C211.132506,424.035365 416.186091,254.347151 669.132506,254.347151 C922.078922,254.347151 1127.13251,424.035365 1127.13251,633.356385 Z M989.327197,679.25492 C989.327197,533.364583 846.424809,415.097098 670.145781,415.097098 C493.866752,415.097098 350.964365,533.364583 350.964365,679.25492 C350.964365,825.145256 989.327197,825.145256 989.327197,679.25492 Z" id="Combined-Shape" fill="#3D499B"></path>
                <path d="M1053.61448,665.522153 C1053.61448,841.258084 281.614482,841.258084 281.614482,665.522153 C281.614482,489.786222 454.432568,347.324101 667.614482,347.324101 C880.796395,347.324101 1053.61448,489.786222 1053.61448,665.522153 Z M988.603955,679.691216 C988.603955,533.995655 845.346857,415.886066 668.630271,415.886066 C491.913685,415.886066 348.656587,533.995655 348.656587,679.691216 C348.656587,825.386776 988.603955,825.386776 988.603955,679.691216 Z" id="Combined-Shape" fill="#6C76B5"></path>
                <path d="M350.88936,677.57844 C349.900039,709.174689 350.858502,732.036524 353.764747,746.163946 C356.670993,760.291368 363.915892,777.306533 375.499444,797.209442 C477.37665,813.141013 568.836515,819.902949 649.87904,817.49525 C730.921565,815.087551 839.555344,803.585611 975.780377,782.989429 C986.173321,765.712106 992.216667,748.664592 993.910416,731.846887 C995.604166,715.029182 993.724265,690.736685 988.270714,658.969398 L350.88936,677.57844 Z" id="Path-2" fill="#000E6A"></path>
            </g>
        </g>
    </g>
</svg>