<?xml version="1.0" encoding="UTF-8"?>
<svg width="392px" height="320px" viewBox="0 0 392 320" version="1.1" xmlns="http://www.w3.org/2000/svg" xmlns:xlink="http://www.w3.org/1999/xlink">
    <!-- Generator: Sketch 52.5 (67469) - http://www.bohemiancoding.com/sketch -->
    <title>success</title>
    <desc>Created with Sketch.</desc>
    <defs>
        <path d="M35.855713,219.845985 L0.322569825,190.151023 L4.32124996,151.977206 C34.3590025,85.3325983 56.2875587,47.4337164 70.1069186,38.2805599 C73.2339647,36.2093828 74.8663358,5.07742101 83.0509917,1.03955271 C89.4852067,-2.13474237 102.688766,21.5673701 105.411391,20.6066213 C137.833924,9.16549002 173.95278,8.50029415 213.767958,18.6110337 C242.221384,29.3819439 266.344695,42.6682131 286.137892,58.4698412 C295.115121,65.6366891 318.033235,37.2633065 327.961049,48.0701578 C340.593889,61.8215473 339.734052,115.888157 344.437482,135.629392 C351.195903,163.995835 376.285524,255.95593 332.09093,329.715955 C328.714504,335.351152 307.495378,328.899869 268.433551,310.362105 L202.146483,286.845985 L35.855713,219.845985 Z" id="path-1"></path>
        <filter x="-1.0%" y="-1.1%" width="102.0%" height="102.1%" filterUnits="objectBoundingBox" id="filter-2">
            <feMorphology radius="3" operator="erode" in="SourceAlpha" result="shadowSpreadInner1"></feMorphology>
            <feGaussianBlur stdDeviation="1.5" in="shadowSpreadInner1" result="shadowBlurInner1"></feGaussianBlur>
            <feOffset dx="0" dy="1" in="shadowBlurInner1" result="shadowOffsetInner1"></feOffset>
            <feComposite in="shadowOffsetInner1" in2="SourceAlpha" operator="arithmetic" k2="-1" k3="1" result="shadowInnerInner1"></feComposite>
            <feColorMatrix values="0 0 0 0 1   0 0 0 0 1   0 0 0 0 1  0 0 0 0.35 0" type="matrix" in="shadowInnerInner1"></feColorMatrix>
        </filter>
        <path d="M32.8766898,0.856874075 C27.3505298,0.856874075 16.8426723,30.6382947 1.35311739,90.201136 L1.35311345,90.201135 C1.08600497,91.228262 1.66767988,92.2851746 2.67833369,92.6090814 C20.1325589,98.2030271 33.3726211,101 42.3985205,101 C51.3493868,101 63.7405909,98.2493368 79.5721329,92.7480105 L79.5721254,92.747989 C80.6154842,92.3854307 81.167382,91.2457097 80.8048237,90.2023509 C80.7866003,90.1499081 80.766201,90.0982468 80.743679,90.0475014 C54.3537595,30.5870832 38.3980965,0.856874075 32.8766898,0.856874075 Z" id="path-3"></path>
        <path d="M51.1371884,133.982803 C44.4068104,124.919291 35.8548155,120.387535 25.4812036,120.387535 C-9.96112195,131.778464 -7.58913808,163.398414 32.5971553,215.247385" id="path-5"></path>
        <filter x="-9.9%" y="-5.3%" width="119.8%" height="110.5%" filterUnits="objectBoundingBox" id="filter-6">
            <feMorphology radius="3" operator="erode" in="SourceAlpha" result="shadowSpreadInner1"></feMorphology>
            <feGaussianBlur stdDeviation="3" in="shadowSpreadInner1" result="shadowBlurInner1"></feGaussianBlur>
            <feOffset dx="0" dy="1" in="shadowBlurInner1" result="shadowOffsetInner1"></feOffset>
            <feComposite in="shadowOffsetInner1" in2="SourceAlpha" operator="arithmetic" k2="-1" k3="1" result="shadowInnerInner1"></feComposite>
            <feColorMatrix values="0 0 0 0 1   0 0 0 0 1   0 0 0 0 1  0 0 0 0.5 0" type="matrix" in="shadowInnerInner1"></feColorMatrix>
        </filter>
        <path d="M10.0381942,102.261412 C9.99139757,72.0921977 9.42499047,52.5588585 8.33897288,43.6613947 C2.99516865,22.6890985 -4.12371421,4.18413129 2.99516865,1.28588786 C20.3730384,-5.78899986 31.6740656,18.2835114 31.6740656,25.9839095 C55.9856603,25.9839095 66.5148332,43.6613947 58.1813568,72.8491024 C57.4035423,75.5733703 58.3401438,80.0216735 60.9911614,86.1940121 L60.9911499,86.1940171 C61.6450077,87.7163879 60.9409388,89.4805698 59.418568,90.1344277 C59.3380227,90.1690218 59.2559999,90.200069 59.1727357,90.2274799 L13.9762917,105.10633 C12.4025168,105.624423 10.7067232,104.768623 10.1886307,103.194848 C10.0894621,102.89361 10.0386861,102.578553 10.0381942,102.261412 Z" id="path-7"></path>
        <filter x="-8.2%" y="-4.8%" width="116.8%" height="109.8%" filterUnits="objectBoundingBox" id="filter-8">
            <feMorphology radius="3" operator="erode" in="SourceAlpha" result="shadowSpreadInner1"></feMorphology>
            <feGaussianBlur stdDeviation="3" in="shadowSpreadInner1" result="shadowBlurInner1"></feGaussianBlur>
            <feOffset dx="0" dy="1" in="shadowBlurInner1" result="shadowOffsetInner1"></feOffset>
            <feComposite in="shadowOffsetInner1" in2="SourceAlpha" operator="arithmetic" k2="-1" k3="1" result="shadowInnerInner1"></feComposite>
            <feColorMatrix values="0 0 0 0 1   0 0 0 0 1   0 0 0 0 1  0 0 0 0.5 0" type="matrix" in="shadowInnerInner1"></feColorMatrix>
        </filter>
    </defs>
    <g id="Page-1" stroke="none" stroke-width="1" fill="none" fill-rule="evenodd">
        <g id="Desktop-Copy-3" transform="translate(-129.000000, -302.000000)">
            <g id="success" transform="translate(129.000000, 288.000000)">
                <g id="bow" transform="translate(208.557491, 178.510673) rotate(-4.000000) translate(-208.557491, -178.510673) translate(29.557491, 12.510673)" fill-rule="nonzero">
                    <g id="Path-3">
                        <use fill="#0B1142" xlink:href="#path-1"></use>
                        <use fill="black" fill-opacity="1" filter="url(#filter-2)" xlink:href="#path-1"></use>
                    </g>
                    <g id="Group-5" transform="translate(125.476342, 225.062753) rotate(-3.000000) translate(-125.476342, -225.062753) translate(80.976342, 191.062753)">
                        <path d="M58.5680944,28.5929905 C86.2929792,17.4271349 95.0572567,24.4032003 84.8609271,49.5211869 C74.6645974,74.6391734 62.3583628,73.4509853 47.9422233,45.9566224 L32.6888669,39.605065 C2.8685312,44.6666468 -6.40793475,36.5960271 4.85946908,15.3932058 C16.1268729,-5.80961551 28.4964825,-4.91310049 41.9682978,18.0827509 L58.5680944,28.5929905 Z" id="Path-6" fill="#5800A6"></path>
                        <ellipse id="Oval" fill="#44067B" transform="translate(45.684082, 32.287638) rotate(19.000000) translate(-45.684082, -32.287638) " cx="45.6840816" cy="32.2876382" rx="12" ry="14.5"></ellipse>
                    </g>
                </g>
                <g id="horn" transform="translate(161.000000, 14.000000)">
                    <mask id="mask-4" fill="white">
                        <use xlink:href="#path-3"></use>
                    </mask>
                    <use id="Mask" fill="#E990FF" fill-rule="nonzero" xlink:href="#path-3"></use>
                    <g id="Group-4" mask="url(#mask-4)" fill-rule="nonzero" stroke="#0B1142" stroke-linecap="square" stroke-width="6">
                        <g transform="translate(-8.000000, 26.000000)">
                            <path d="M0.5,54.5 C20.909938,60.4945466 36.4825285,63.4918199 47.2177717,63.4918199 C57.9530148,63.4918199 73.5256054,60.4945466 93.9355433,54.5" id="Line-2"></path>
                            <path d="M1,25 C21.409938,30.9945466 36.9825285,33.9918199 47.7177717,33.9918199 C58.4530148,33.9918199 74.0256054,30.9945466 94.4355433,25" id="Line-2-Copy"></path>
                            <path d="M1,1.33226763e-14 C21.409938,5.99454661 36.9825285,8.99181991 47.7177717,8.99181991 C58.4530148,8.99181991 74.0256054,5.99454661 94.4355433,1.33226763e-14" id="Line-2-Copy-2"></path>
                        </g>
                    </g>
                </g>
                <g id="eye" transform="translate(109.000000, 140.000000)" fill-rule="nonzero">
                    <circle id="Oval" fill="#FFFFFF" cx="11.5" cy="9.5" r="9.5"></circle>
                    <ellipse id="Oval-Copy" fill="#0B1142" transform="translate(11.114723, 12.403736) rotate(10.000000) translate(-11.114723, -12.403736) " cx="11.114723" cy="12.403736" rx="9.5" ry="8"></ellipse>
                </g>
                <g id="eye-copy" transform="translate(227.000000, 170.000000)" fill-rule="nonzero">
                    <circle id="Oval" fill="#FFFFFF" cx="13.5" cy="9.5" r="9.5"></circle>
                    <ellipse id="Oval-Copy" fill="#0B1142" transform="translate(12.121898, 12.209364) rotate(10.000000) translate(-12.121898, -12.209364) " cx="12.1218982" cy="12.209364" rx="10.5" ry="7.5"></ellipse>
                </g>
                <path d="M172.849418,175.98171 C175.211342,176.941305 177.61509,178.576371 180.060663,180.886908 C181.34829,182.103438 182.490544,183.358918 183.487424,184.653349 L183.487415,184.653356 C184.498355,185.966043 184.253741,187.849714 182.941054,188.860654 C182.38836,189.2863 181.704606,189.506028 181.007419,189.482038 L161.492548,188.810554 C159.836668,188.753577 158.540502,187.365031 158.59748,185.709151 C158.622944,184.969119 158.921192,184.264648 159.434835,183.731294 C160.378467,182.751452 161.351927,181.854148 162.355215,181.03938 C164.574666,179.236972 167.262802,177.576404 170.419623,176.057677 L170.419619,176.057669 C171.18255,175.690627 172.065051,175.663039 172.849418,175.98171 Z" id="Triangle" fill="#FFC3C3" fill-rule="nonzero" transform="translate(171.198418, 182.705403) rotate(-171.000000) translate(-171.198418, -182.705403) "></path>
                <path d="M102.991694,40.0525483 C100.383599,42.0175161 97.9493181,49.035775 95.6888528,61.1073249 C100.273757,58.0201198 103.904065,55.8964508 106.579778,54.736318 C109.255491,53.5761851 112.885799,52.5518033 117.470703,51.6631726 C110.210086,42.9087862 105.38375,39.0385781 102.991694,40.0525483 Z" id="Path-5" fill="#BF75FF" fill-rule="nonzero"></path>
                <path d="M328.600949,72.93322 C324.675745,75.9171384 321.012134,86.5747743 317.610117,104.906128 C324.510432,100.218027 329.974074,96.9931114 334.001042,95.2313818 C338.028011,93.4696523 343.491652,91.9140687 350.391967,90.5646311 C339.464684,77.270584 332.201011,71.393447 328.600949,72.93322 Z" id="Path-5-Copy" fill="#BF75FF" fill-rule="nonzero" transform="translate(334.001042, 88.799801) scale(-1, 1) rotate(-15.000000) translate(-334.001042, -88.799801) "></path>
                <g id="whiskers" transform="translate(116.000000, 166.000000)" fill-rule="nonzero" stroke="#FFFFFF" stroke-linecap="round" stroke-width="3">
                    <g id="Group-3">
                        <path d="M27.2937187,14.8300104 C24.7055232,12.7072362 21.8353631,10.7028434 18.6832382,8.81683192 C15.5311133,6.93082043 10.6367006,4.28943484 4,0.892675129" id="Path-7"></path>
                        <path d="M25.1123086,33.1217517 C21.1706092,30.8236891 18.3765917,29.1608114 16.7302559,28.1331187 C12.6475023,25.5845401 10.0362183,23.9080092 7.48428242,22.3811089 C3.38877674,19.9306442 1.50021256,18.86508 1.81858988,19.1844165" id="Path-7-Copy" transform="translate(13.448226, 26.125471) rotate(-43.000000) translate(-13.448226, -26.125471) "></path>
                    </g>
                    <g id="Group-3-Copy" transform="translate(95.472021, 39.577111) scale(-1, 1) rotate(-27.000000) translate(-95.472021, -39.577111) translate(80.472021, 20.077111)">
                        <path d="M29.2937187,14.8300104 C26.9316682,12.957446 24.1275331,11.0500082 20.8813136,9.10769703 C17.6350941,7.16538587 12.6746562,4.42704524 6,0.892675129" id="Path-7"></path>
                        <path d="M25.4057841,32.5600433 C22.0319617,30.0885721 18.9089722,27.9935875 16.0368157,26.2750895 C14.4492629,25.3252087 12.1246095,24.3071069 9.45586481,22.8486595 C8.01621533,22.0619026 5.56828218,20.6532522 2.11206536,18.6227081" id="Path-7-Copy" transform="translate(13.758925, 25.591376) rotate(-43.000000) translate(-13.758925, -25.591376) "></path>
                    </g>
                </g>
                <g id="Path-8" fill-rule="nonzero">
                    <use fill="#0B1142" xlink:href="#path-5"></use>
                    <use fill="black" fill-opacity="1" filter="url(#filter-6)" xlink:href="#path-5"></use>
                </g>
                <g id="paw-copy" transform="translate(22.028964, 145.901227) rotate(-8.000000) translate(-22.028964, -145.901227) translate(7.528964, 133.901227)" fill="#FFC6C6" fill-rule="nonzero">
                    <circle id="Oval" cx="3.96891538" cy="7.6162555" r="3"></circle>
                    <ellipse id="Oval-Copy-2" cx="15.6273162" cy="3.70068523" rx="3" ry="3.5"></ellipse>
                    <ellipse id="Oval-Copy-3" cx="25.6852263" cy="11.1731978" rx="3" ry="3.5"></ellipse>
                    <path d="M4.84926487,20.5976684 C4.38872851,17.6934854 8.33570356,8.96128372 16.8712702,10.2780081 C25.4068369,11.5947325 25.9495119,24.8651441 19.1695186,22.9563453 C12.3895253,21.0475465 5.30980122,23.5018514 4.84926487,20.5976684 Z" id="Path-11"></path>
                </g>
                <g id="Group-2" transform="translate(59.000000, 193.000000)" fill-rule="nonzero">
                    <path d="M61.3522052,22.6256257 L107.177256,0 C110.515759,0.986756783 112.659455,2.16631422 113.608346,3.53867232 C114.557236,4.91103042 115.02088,7.5024106 114.999279,11.3128129 L69.3232269,44.7478861 C63.3651579,54.83706 56.6574355,60.4828452 49.2000597,61.6852416 C41.7426839,62.8876381 27.3430698,60.6451127 6.0012175,54.9576654 C1.29429701,47.9188206 -0.643797761,40.8275749 0.186933196,33.6839284 C1.40105916,23.2433799 9.63466908,18.6669912 9.37075549,17.9345425 C8.81002967,16.3783401 23.3052442,15.2734273 52.856399,14.619804 L52.8563987,14.6197899 C53.4318321,14.6070622 53.9987806,14.7601366 54.4896121,15.0607526 C55.6767102,15.7878059 56.6801728,16.5811287 57.5,17.4407209 C58.495941,18.4849693 59.7800094,20.2132709 61.3522052,22.6256257 Z" id="Path-12" fill="#FF7979"></path>
                    <path d="M50.9274335,38.8930833 C51.6872718,35.5932154 51.2372955,33.7761272 49.5775045,33.4418184 C49.3826941,33.4025805 45.7254193,33.9432815 45.7254193,39.918322 C45.7254193,43.9016824 47.4594241,46.1505816 50.9274335,46.6650197 C54.1253352,44.8926273 55.9080858,42.3019818 56.2756854,38.8930833 C56.4942625,36.8661298 56.8754996,31.6692442 55.573534,28.6719617 C54.6858744,26.6284617 52.7944834,24.5496727 50.9274335,24.5496727 C49.0603836,24.5496727 41.4795764,26.8075592 41.0466736,37.7696294 C40.6137708,48.7316995 43.7861957,54.4527827 49.2668627,54.7484382 C54.7475296,55.0440937 59.1318254,53.2364939 61.8725246,38.8930833 C64.6132239,24.5496727 56.8274243,17 52.7944834,17 C48.7615425,17 44.2431413,19.03828 41.8245406,22.8799928 C35.9264069,32.2486064 36.6714692,43.783403 37.7148498,47.1851677 C38.7582305,50.5869323 42.8764856,60.7634295 50.9274335,58.735069 C52.8832207,58.2423268 57.2202029,57.4764116 61.8725246,52.0326476 C63.6138801,49.9950568 65.2631054,45.9569482 66.8202003,39.918322 L75,35.1697551" id="Path-13" stroke="#FFE8E8" stroke-width="2"></path>
                </g>
                <g id="Group" transform="translate(276.500000, 258.500000) scale(-1, 1) translate(-276.500000, -258.500000) translate(246.000000, 206.000000)" fill-rule="nonzero">
                    <g id="Path-9">
                        <use fill="#0B1142" xlink:href="#path-7"></use>
                        <use fill="black" fill-opacity="1" filter="url(#filter-8)" xlink:href="#path-7"></use>
                    </g>
                    <path d="M29.1803091,43.5007255 C31.333413,46.8337763 32.409308,49.9556791 32.4079942,52.866434 C32.4066803,55.7771889 32.0971167,58.9674638 31.4793033,62.4372587" id="Line-3" stroke="#FFFFFF" opacity="0.615815662" stroke-linecap="round" transform="translate(30.794152, 52.968992) scale(-1, 1) rotate(12.000000) translate(-30.794152, -52.968992) "></path>
                </g>
            </g>
        </g>
    </g>
</svg>